<svg xmlns="http://www.w3.org/2000/svg" xmlns:xlink="http://www.w3.org/1999/xlink" width="280" height="288" viewBox="0 0 280 288">
  <defs>
    <style>
      .cls-1, .cls-7 {
        fill: #018abe;
      }

      .cls-2 {
        clip-path: url(#clip-Initial_state);
      }

      .cls-3 {
        fill: #fff;
      }

      .cls-4 {
        fill: #323232;
      }

      .cls-5 {
        fill: #4eaed2;
      }

      .cls-12, .cls-6 {
        fill: #02457a;
      }

      .cls-7, .cls-8 {
        opacity: 0.7;
      }

      .cls-8 {
        fill: #97cadb;
      }

      .cls-9 {
        fill: rgba(255,255,255,0.5);
      }

      .cls-10 {
        clip-path: url(#clip-path);
      }

      .cls-11 {
        fill: #d6e7ee;
      }

      .cls-12 {
        font-size: 12px;
        font-family: Montserrat-Bold, Montserrat;
        font-weight: 700;
        letter-spacing: 0.1em;
        opacity: 0;
      }

      .cls-13 {
        filter: url(#Rectangle_2);
      }

      .cls-14 {
        filter: url(#Rectangle_3);
      }

      .cls-15 {
        filter: url(#Rectangle_4-2);
      }
    </style>
    <filter id="Rectangle_4" x="43" y="208" width="194" height="62" filterUnits="userSpaceOnUse">
      <feOffset dy="7" input="SourceAlpha"/>
      <feGaussianBlur stdDeviation="5" result="blur"/>
      <feFlood flood-color="#018abe" flood-opacity="0.4"/>
      <feComposite operator="in" in2="blur"/>
      <feComposite in="SourceGraphic"/>
    </filter>
    <filter id="Rectangle_4-2" x="43" y="208" width="194" height="62" filterUnits="userSpaceOnUse">
      <feOffset dy="7" input="SourceAlpha"/>
      <feGaussianBlur stdDeviation="5" result="blur-2"/>
      <feFlood flood-color="#018abe" flood-opacity="0.4"/>
      <feComposite operator="in" in2="blur-2"/>
      <feComposite in="SourceGraphic"/>
    </filter>
    <clipPath id="clip-path">
      <g class="cls-15" transform="matrix(1, 0, 0, 1, 0, 0)">
        <rect id="Rectangle_4-3" data-name="Rectangle 4" class="cls-1" width="164" height="32" rx="16" transform="translate(58 216)"/>
      </g>
    </clipPath>
    <filter id="Rectangle_3" x="43" y="208" width="194" height="62" filterUnits="userSpaceOnUse">
      <feOffset dy="7" input="SourceAlpha"/>
      <feGaussianBlur stdDeviation="5" result="blur-3"/>
      <feFlood flood-color="#d6e7ee" flood-opacity="0.4"/>
      <feComposite operator="in" in2="blur-3"/>
      <feComposite in="SourceGraphic"/>
    </filter>
    <filter id="Rectangle_2" x="43" y="208" width="194" height="62" filterUnits="userSpaceOnUse">
      <feOffset dy="7" input="SourceAlpha"/>
      <feGaussianBlur stdDeviation="5" result="blur-4"/>
      <feFlood flood-color="#018abe" flood-opacity="0.4"/>
      <feComposite operator="in" in2="blur-4"/>
      <feComposite in="SourceGraphic"/>
    </filter>
    <clipPath id="clip-Initial_state">
      <rect width="280" height="288"/>
    </clipPath>
  </defs>
  <g id="Initial_state" data-name="Initial state" class="cls-2">
    <rect class="cls-3" width="280" height="288"/>
    <g id="Component_2_1" data-name="Component 2 – 1">
      <rect id="Rectangle_1" data-name="Rectangle 1" class="cls-3" width="280" height="288" rx="4"/>
    </g>
    <path id="Path_3" data-name="Path 3" class="cls-4" d="M101.772,62.72a.656.656,0,0,1,.64.64.651.651,0,0,1-.192.48.68.68,0,0,1-.448.16H90.027a.651.651,0,0,1-.48-.192.678.678,0,0,1-.16-.448V42.24a.614.614,0,0,1,.192-.448.7.7,0,0,1,.96,0,.614.614,0,0,1,.192.448V62.72Zm8.27.64a.656.656,0,0,1-.64.64.651.651,0,0,1-.48-.192.682.682,0,0,1-.16-.448V48.16a.656.656,0,0,1,.64-.64.55.55,0,0,1,.448.192.614.614,0,0,1,.192.448Zm-.64-18.016a1.2,1.2,0,0,1-.832-.288,1,1,0,0,1-.288-.736v-.256a.947.947,0,0,1,.32-.736,1.2,1.2,0,0,1,.832-.288,1,1,0,0,1,.736.288.944.944,0,0,1,.32.736v.256a.944.944,0,0,1-.32.736A1.038,1.038,0,0,1,109.4,45.344Zm15.618,2.88a.663.663,0,0,1,.608.608.614.614,0,0,1-.192.448.563.563,0,0,1-.416.16h-3.776V63.36a.656.656,0,0,1-.64.64.651.651,0,0,1-.48-.192.677.677,0,0,1-.16-.448V49.44H117.4a.663.663,0,0,1-.608-.608.6.6,0,0,1,.16-.448.678.678,0,0,1,.448-.16h2.56v-3.9a3.79,3.79,0,0,1,.992-2.848,3.575,3.575,0,0,1,2.592-.992,4.933,4.933,0,0,1,1.5.224q.736.192.736.672a.614.614,0,0,1-.192.448.581.581,0,0,1-.416.192,1.984,1.984,0,0,1-.672-.16,4.21,4.21,0,0,0-1.088-.224,2.055,2.055,0,0,0-1.6.672,3.031,3.031,0,0,0-.576,2.016v3.9Zm20,11.936a.486.486,0,0,1,.384.192.523.523,0,0,1,.16.384.6.6,0,0,1-.128.384,8.531,8.531,0,0,1-2.624,2.3,6.661,6.661,0,0,1-3.36.9A8.663,8.663,0,0,1,135.2,63.3a7.356,7.356,0,0,1-2.912-2.912A9.05,9.05,0,0,1,131.261,56a9.634,9.634,0,0,1,.992-4.48,7.465,7.465,0,0,1,2.688-2.976,6.661,6.661,0,0,1,3.552-1.024,7.446,7.446,0,0,1,3.488.832,6.459,6.459,0,0,1,2.656,2.432,7.853,7.853,0,0,1,1.088,4.032.725.725,0,0,1-.192.48.613.613,0,0,1-.448.192H132.509V55.9a8.313,8.313,0,0,0,.8,3.648,6.168,6.168,0,0,0,2.368,2.592,7.094,7.094,0,0,0,3.776.96,5.9,5.9,0,0,0,2.88-.736,6.07,6.07,0,0,0,2.144-1.92A.669.669,0,0,1,145.021,60.16ZM138.493,48.8a5.313,5.313,0,0,0-2.432.64,6.332,6.332,0,0,0-2.176,1.856,6.831,6.831,0,0,0-1.248,2.976h11.776v-.288a5.272,5.272,0,0,0-1.056-2.784,5.536,5.536,0,0,0-2.176-1.792A6.189,6.189,0,0,0,138.493,48.8Zm34.939,4a12.684,12.684,0,0,1-1.376,5.984,10.009,10.009,0,0,1-3.776,4.1,11.361,11.361,0,0,1-11.072,0,10.24,10.24,0,0,1-3.808-4.1,13.994,13.994,0,0,1,0-11.968,10.018,10.018,0,0,1,3.808-4.064,11.146,11.146,0,0,1,11.072,0,9.794,9.794,0,0,1,3.776,4.064A12.684,12.684,0,0,1,173.432,52.8Zm-1.344,0a11.651,11.651,0,0,0-1.184-5.344,8.665,8.665,0,0,0-3.328-3.616,9.136,9.136,0,0,0-4.832-1.28,9.307,9.307,0,0,0-4.864,1.28,8.744,8.744,0,0,0-3.3,3.616,12.652,12.652,0,0,0,0,10.688,8.744,8.744,0,0,0,3.3,3.616,9.307,9.307,0,0,0,4.864,1.28,9.136,9.136,0,0,0,4.832-1.28,8.665,8.665,0,0,0,3.328-3.616A11.651,11.651,0,0,0,172.088,52.8Zm15.059,11.52a9.9,9.9,0,0,1-4.128-.8,12.668,12.668,0,0,1-3.488-2.56.651.651,0,0,1-.192-.48.67.67,0,0,1,.224-.48.639.639,0,0,1,.48-.256.732.732,0,0,1,.544.288,8.329,8.329,0,0,0,2.944,2.24,8.807,8.807,0,0,0,3.616.768,6.653,6.653,0,0,0,4.064-1.184,3.716,3.716,0,0,0,1.6-3.136,4.045,4.045,0,0,0-.832-2.528,5.744,5.744,0,0,0-1.984-1.568,26.6,26.6,0,0,0-3.168-1.344,34.807,34.807,0,0,1-3.456-1.472,6.341,6.341,0,0,1-2.112-1.824,5.143,5.143,0,0,1-.864-3.1,4.978,4.978,0,0,1,.864-2.848,5.815,5.815,0,0,1,2.464-2.016,8.8,8.8,0,0,1,3.712-.736,9.26,9.26,0,0,1,3.584.7,6.325,6.325,0,0,1,2.688,1.92,1.393,1.393,0,0,1,.32.672.642.642,0,0,1-.256.48.766.766,0,0,1-.512.192.515.515,0,0,1-.416-.192,6.316,6.316,0,0,0-2.3-1.824,7.116,7.116,0,0,0-3.1-.672,6.871,6.871,0,0,0-4.064,1.152,3.661,3.661,0,0,0-1.6,3.136,3.622,3.622,0,0,0,.768,2.336,6.269,6.269,0,0,0,1.984,1.568,31.234,31.234,0,0,0,2.944,1.216,30.827,30.827,0,0,1,3.552,1.472,6.307,6.307,0,0,1,2.24,1.952,5.658,5.658,0,0,1,.928,3.392,4.827,4.827,0,0,1-.864,2.752,6,6,0,0,1-2.5,2.048A8.72,8.72,0,0,1,187.147,64.32Z"/>
    <path id="Path_4" data-name="Path 4" class="cls-5" d="M73.13,80.76v4.032h5.012V80.76h1.12V90h-1.12V85.842H73.13V90H72.01V80.76Zm11.74,2.1a3.453,3.453,0,0,1,1.75.434,3.019,3.019,0,0,1,1.2,1.26,4.075,4.075,0,0,1,.434,1.946,4.159,4.159,0,0,1-.434,1.96,3.039,3.039,0,0,1-1.2,1.246,3.453,3.453,0,0,1-1.75.434,3.5,3.5,0,0,1-1.75-.434,3.04,3.04,0,0,1-1.2-1.246,4.161,4.161,0,0,1-.434-1.96,4.076,4.076,0,0,1,.434-1.946,3.02,3.02,0,0,1,1.2-1.26A3.5,3.5,0,0,1,84.87,82.86Zm0,.966a2.062,2.062,0,0,0-1.666.714,3.492,3.492,0,0,0,0,3.92,2.3,2.3,0,0,0,3.332,0,3.492,3.492,0,0,0,0-3.92A2.062,2.062,0,0,0,84.87,83.826ZM98.926,83h1.246l-2.436,7h-1.12l-1.974-5.572L92.78,90H91.66l-2.436-7H90.47l1.764,5.7,1.9-5.7h1.12l1.9,5.7Zm8.446-3.22v8.442a1.086,1.086,0,0,0,.2.742.864.864,0,0,0,.63.2,2.1,2.1,0,0,0,.462-.042,4.459,4.459,0,0,0,.49-.154l-.182.98a2.627,2.627,0,0,1-1.036.2q-1.68,0-1.68-1.876V79.78Zm6.113,3.08a3.452,3.452,0,0,1,1.75.434,3.019,3.019,0,0,1,1.2,1.26,4.08,4.08,0,0,1,.434,1.946,4.164,4.164,0,0,1-.434,1.96,3.039,3.039,0,0,1-1.2,1.246,3.452,3.452,0,0,1-1.75.434,3.5,3.5,0,0,1-1.75-.434,3.039,3.039,0,0,1-1.2-1.246,4.164,4.164,0,0,1-.434-1.96,4.08,4.08,0,0,1,.434-1.946,3.019,3.019,0,0,1,1.2-1.26A3.5,3.5,0,0,1,113.485,82.86Zm0,.966a2.062,2.062,0,0,0-1.666.714,3.492,3.492,0,0,0,0,3.92,2.3,2.3,0,0,0,3.332,0,3.492,3.492,0,0,0,0-3.92A2.062,2.062,0,0,0,113.485,83.826Zm5.5,6.174V83h.98l.07,1.092a2.1,2.1,0,0,1,.994-.938,3.316,3.316,0,0,1,2.73,0,2.21,2.21,0,0,1,.98.868,2.723,2.723,0,0,1,.378,1.5V90h-1.12V85.912a2.09,2.09,0,0,0-.5-1.61,1.708,1.708,0,0,0-1.218-.462,2.342,2.342,0,0,0-1.008.238,2.005,2.005,0,0,0-.84.77,2.74,2.74,0,0,0-.322,1.428V90Zm12.434-.9a2.376,2.376,0,0,1,1.554.462,1.463,1.463,0,0,1,.56,1.2,1.7,1.7,0,0,1-.462,1.19,2.825,2.825,0,0,1-1.218.77,4.895,4.895,0,0,1-1.708.28,4.443,4.443,0,0,1-2.478-.56,1.613,1.613,0,0,1-.812-1.344,1.507,1.507,0,0,1,.266-.868,1.484,1.484,0,0,1,.882-.56,1.453,1.453,0,0,1-.546-.42,1.207,1.207,0,0,1-.21-.742,1.31,1.31,0,0,1,.252-.784,1.584,1.584,0,0,1,.756-.56,2.113,2.113,0,0,1-.812-.812,2.291,2.291,0,0,1-.28-1.134,2.126,2.126,0,0,1,.364-1.232,2.489,2.489,0,0,1,1.022-.826,3.4,3.4,0,0,1,1.484-.308,3.49,3.49,0,0,1,1.582.35,1.58,1.58,0,0,1,.616-1.092,1.994,1.994,0,0,1,1.246-.406h.07l.252.994h-.1a1.827,1.827,0,0,0-1.008.238.921.921,0,0,0-.406.742,2.153,2.153,0,0,1,.616,1.54,2.176,2.176,0,0,1-.364,1.232,2.481,2.481,0,0,1-1.022.84,3.541,3.541,0,0,1-1.484.294,4.51,4.51,0,0,1-.966-.1,1.2,1.2,0,0,0-.6.35.757.757,0,0,0-.182.49q0,.77,1.092.77ZM130.03,83.77a1.843,1.843,0,0,0-1.218.406,1.275,1.275,0,0,0-.49,1.05,1.3,1.3,0,0,0,.49,1.05,2.03,2.03,0,0,0,2.436,0,1.3,1.3,0,0,0,.49-1.05,1.277,1.277,0,0,0-.49-1.05A1.846,1.846,0,0,0,130.03,83.77Zm.1,8.3a3.431,3.431,0,0,0,1.792-.364.983.983,0,0,0,.574-.812.708.708,0,0,0-.308-.6,1.871,1.871,0,0,0-1.078-.224h-2.156a1.25,1.25,0,0,0-.756.224.769.769,0,0,0-.308.644.926.926,0,0,0,.588.826A3.669,3.669,0,0,0,130.128,92.072ZM148.336,83h1.246l-2.436,7h-1.12l-1.974-5.572L142.19,90h-1.12l-2.436-7h1.246l1.764,5.7,1.9-5.7h1.12l1.9,5.7Zm5.6-.14a3.452,3.452,0,0,1,1.75.434,3.013,3.013,0,0,1,1.2,1.26,4.068,4.068,0,0,1,.434,1.946,4.152,4.152,0,0,1-.434,1.96,3.033,3.033,0,0,1-1.2,1.246,3.452,3.452,0,0,1-1.75.434,3.5,3.5,0,0,1-1.75-.434,3.046,3.046,0,0,1-1.2-1.246,4.164,4.164,0,0,1-.434-1.96,4.08,4.08,0,0,1,.434-1.946,3.025,3.025,0,0,1,1.2-1.26A3.5,3.5,0,0,1,153.94,82.86Zm0,.966a2.063,2.063,0,0,0-1.666.714,3.492,3.492,0,0,0,0,3.92,2.3,2.3,0,0,0,3.332,0,3.492,3.492,0,0,0,0-3.92A2.06,2.06,0,0,0,153.94,83.826Zm8.031,6.314a3.265,3.265,0,0,1-1.274-.252,2.193,2.193,0,0,1-.966-.812,2.728,2.728,0,0,1-.364-1.484V83h1.12v4.3a1.9,1.9,0,0,0,.462,1.47,1.954,1.954,0,0,0,1.3.392,2.228,2.228,0,0,0,1.008-.238,2.007,2.007,0,0,0,.784-.77,2.608,2.608,0,0,0,.308-1.344V83h1.12v7h-.98l-.07-1.064a2.21,2.21,0,0,1-.994.924A3.494,3.494,0,0,1,161.971,90.14Zm7.17-10.36v8.442a1.092,1.092,0,0,0,.2.742.864.864,0,0,0,.63.2,2.1,2.1,0,0,0,.462-.042,4.393,4.393,0,0,0,.49-.154l-.182.98a2.627,2.627,0,0,1-1.036.2q-1.68,0-1.68-1.876V79.78Zm5.946,10.36a3.058,3.058,0,0,1-1.6-.434,3.12,3.12,0,0,1-1.162-1.246,4.152,4.152,0,0,1-.434-1.96,3.934,3.934,0,0,1,.462-1.974,3.156,3.156,0,0,1,1.218-1.232,3.208,3.208,0,0,1,1.624-.434,2.577,2.577,0,0,1,1.344.35,2.075,2.075,0,0,1,.868.924V79.78h1.12V90h-.98l-.07-1.316a2.184,2.184,0,0,1-.952,1.092A2.932,2.932,0,0,1,175.087,90.14Zm.112-.98a1.954,1.954,0,0,0,1.6-.742,3.064,3.064,0,0,0,.616-2.016,2.715,2.715,0,0,0-.6-1.876,1.974,1.974,0,0,0-1.554-.686,2,2,0,0,0-1.652.728,2.982,2.982,0,0,0-.588,1.932,3.03,3.03,0,0,0,.574,1.932A1.932,1.932,0,0,0,175.2,89.16ZM191.3,83l-3.29,8.176a3.376,3.376,0,0,1-.924,1.428,1.922,1.922,0,0,1-1.246.406,2.692,2.692,0,0,1-.882-.14,2.461,2.461,0,0,1-.7-.35l.308-.98a1.809,1.809,0,0,0,.588.364,1.725,1.725,0,0,0,.63.126,1.18,1.18,0,0,0,.686-.224,1.952,1.952,0,0,0,.588-.91l.364-.91-.7-1.666L184.5,83h1.274l1.75,4.564.434,1.246.5-1.386L190.1,83Zm4.363-.14a3.455,3.455,0,0,1,1.75.434,3.025,3.025,0,0,1,1.2,1.26,4.08,4.08,0,0,1,.434,1.946,4.164,4.164,0,0,1-.434,1.96,3.046,3.046,0,0,1-1.2,1.246,3.455,3.455,0,0,1-1.75.434,3.5,3.5,0,0,1-1.75-.434,3.033,3.033,0,0,1-1.2-1.246,4.152,4.152,0,0,1-.434-1.96,4.068,4.068,0,0,1,.434-1.946,3.013,3.013,0,0,1,1.2-1.26A3.5,3.5,0,0,1,195.667,82.86Zm0,.966A2.06,2.06,0,0,0,194,84.54a3.492,3.492,0,0,0,0,3.92,2.3,2.3,0,0,0,3.332,0,3.492,3.492,0,0,0,0-3.92A2.063,2.063,0,0,0,195.667,83.826Zm8.03,6.314a3.268,3.268,0,0,1-1.274-.252,2.193,2.193,0,0,1-.966-.812,2.737,2.737,0,0,1-.364-1.484V83h1.12v4.3a1.9,1.9,0,0,0,.462,1.47,1.954,1.954,0,0,0,1.3.392,2.222,2.222,0,0,0,1.008-.238,1.994,1.994,0,0,0,.784-.77,2.6,2.6,0,0,0,.308-1.344V83h1.12v7h-.98l-.07-1.064a2.205,2.205,0,0,1-.994.924A3.491,3.491,0,0,1,203.7,90.14ZM97.808,95.78v8.442a1.087,1.087,0,0,0,.2.742.862.862,0,0,0,.63.2,2.107,2.107,0,0,0,.462-.042,4.4,4.4,0,0,0,.49-.154l-.182.98a2.623,2.623,0,0,1-1.036.2q-1.68,0-1.68-1.876V95.78Zm3.776,1.876a.775.775,0,0,1-.84-.84.811.811,0,0,1,.224-.6.832.832,0,0,1,.616-.238.814.814,0,0,1,.84.84.836.836,0,0,1-.238.616A.815.815,0,0,1,101.584,97.656Zm.56,1.344v7h-1.12V99Zm8.744,0-2.73,2.73,2.9,4.27H109.7l-2.352-3.458-1.484,1.484V106h-1.12V95.78h1.12v6.846L109.474,99Zm4.478,7.14a3.61,3.61,0,0,1-1.778-.434,3.033,3.033,0,0,1-1.2-1.246,4.153,4.153,0,0,1-.434-1.96,4.067,4.067,0,0,1,.434-1.946,3.042,3.042,0,0,1,1.19-1.26,3.4,3.4,0,0,1,1.722-.434,3.135,3.135,0,0,1,1.666.42,2.751,2.751,0,0,1,1.064,1.148,3.5,3.5,0,0,1,.364,1.61c0,.159,0,.3-.014.434s-.024.247-.042.35h-5.278a2.661,2.661,0,0,0,.686,1.722,2.128,2.128,0,0,0,1.6.616,2.348,2.348,0,0,0,1.246-.294,2.221,2.221,0,0,0,.784-.8l.882.518a2.889,2.889,0,0,1-1.134,1.134A3.448,3.448,0,0,1,115.366,106.14Zm-.1-6.3a2.056,2.056,0,0,0-1.456.532,2.446,2.446,0,0,0-.714,1.456h4.172a2.061,2.061,0,0,0-.588-1.47A1.973,1.973,0,0,0,115.268,99.84Zm13.95-.84v.966H126.67v4.1a.959.959,0,0,0,.294.77,1.121,1.121,0,0,0,.756.252,1.622,1.622,0,0,0,.7-.14,1.9,1.9,0,0,0,.532-.378l.392.938a2.363,2.363,0,0,1-.77.462,2.787,2.787,0,0,1-1.008.168,2.693,2.693,0,0,1-.994-.182,1.675,1.675,0,0,1-.742-.6,2.088,2.088,0,0,1-.28-1.092v-4.3h-1.4V99h1.4V97.32l1.12-.308V99Zm4.563-.14a3.452,3.452,0,0,1,1.75.434,3.017,3.017,0,0,1,1.2,1.26,4.079,4.079,0,0,1,.434,1.946,4.165,4.165,0,0,1-.434,1.96,3.039,3.039,0,0,1-1.2,1.246,3.455,3.455,0,0,1-1.75.434,3.505,3.505,0,0,1-1.75-.434,3.039,3.039,0,0,1-1.2-1.246,4.165,4.165,0,0,1-.434-1.96,4.079,4.079,0,0,1,.434-1.946,3.017,3.017,0,0,1,1.2-1.26A3.5,3.5,0,0,1,133.781,98.86Zm0,.966a2.062,2.062,0,0,0-1.666.714,3.492,3.492,0,0,0,0,3.92,2.3,2.3,0,0,0,3.332,0,3.492,3.492,0,0,0,0-3.92A2.062,2.062,0,0,0,133.781,99.826ZM152.513,99h1.246l-2.436,7H150.2l-1.974-5.572L146.367,106h-1.12l-2.436-7h1.246l1.764,5.7,1.9-5.7h1.12l1.9,5.7Zm5.6-.14a3.452,3.452,0,0,1,1.75.434,3.017,3.017,0,0,1,1.2,1.26,4.079,4.079,0,0,1,.434,1.946,4.165,4.165,0,0,1-.434,1.96,3.039,3.039,0,0,1-1.2,1.246,3.455,3.455,0,0,1-1.75.434,3.505,3.505,0,0,1-1.75-.434,3.039,3.039,0,0,1-1.2-1.246,4.165,4.165,0,0,1-.434-1.96,4.079,4.079,0,0,1,.434-1.946,3.017,3.017,0,0,1,1.2-1.26A3.5,3.5,0,0,1,158.117,98.86Zm0,.966a2.062,2.062,0,0,0-1.666.714,3.492,3.492,0,0,0,0,3.92,2.3,2.3,0,0,0,3.332,0,3.492,3.492,0,0,0,0-3.92A2.062,2.062,0,0,0,158.117,99.826Zm5.5,6.174V99h.91l.154,1.148a2.227,2.227,0,0,1,2.24-1.288,2.975,2.975,0,0,1,.392.028,1.066,1.066,0,0,1,.378.112l-.2,1.022a1.787,1.787,0,0,0-.336-.084,3.635,3.635,0,0,0-.518-.028,1.787,1.787,0,0,0-.882.252,2,2,0,0,0-.728.77,2.529,2.529,0,0,0-.294,1.288V106Zm11.86-7-2.73,2.73,2.9,4.27h-1.358l-2.352-3.458-1.484,1.484V106h-1.12V95.78h1.12v6.846L174.06,99Zm4.318-2.38a3.989,3.989,0,0,1,1.582.294,2.451,2.451,0,0,1,1.092.812A2.09,2.09,0,0,1,182.858,99a2.47,2.47,0,0,1-.364,1.372,2.317,2.317,0,0,1-.952.84,3.927,3.927,0,0,1-1.316.378v1.5h-1.162v-2.1a4.932,4.932,0,0,0,2-.63,1.384,1.384,0,0,0,.616-1.218,1.317,1.317,0,0,0-.49-1.064,2.291,2.291,0,0,0-1.484-.406,2.2,2.2,0,0,0-1.512.518,2.12,2.12,0,0,0-.686,1.386L176.516,99a2.85,2.85,0,0,1,1.092-1.722A3.509,3.509,0,0,1,179.792,96.62Zm-.168,7.7a.865.865,0,1,1-.658.252A.891.891,0,0,1,179.624,104.32Z"/>
    <circle id="Ellipse_1" data-name="Ellipse 1" class="cls-6" cx="32" cy="32" r="32" transform="translate(58 128)"/>
    <circle id="Ellipse_2" data-name="Ellipse 2" class="cls-7" cx="32" cy="32" r="32" transform="translate(108 128)"/>
    <circle id="Ellipse_3" data-name="Ellipse 3" class="cls-8" cx="32" cy="32" r="32" transform="translate(158 128)"/>
    <path id="Path_5" data-name="Path 5" class="cls-9" d="M84.355,167.2a4.75,4.75,0,0,1-2.9-.9,5.522,5.522,0,0,1-1.82-2.52,10.647,10.647,0,0,1-.62-3.78,10.484,10.484,0,0,1,.62-3.76,5.515,5.515,0,0,1,1.82-2.54,4.75,4.75,0,0,1,2.9-.9,4.663,4.663,0,0,1,2.88.9,5.454,5.454,0,0,1,1.84,2.54,10.482,10.482,0,0,1,.62,3.76,10.645,10.645,0,0,1-.62,3.78,5.461,5.461,0,0,1-1.84,2.52A4.663,4.663,0,0,1,84.355,167.2Zm0-2.4a2.224,2.224,0,0,0,2-1.22,9.03,9.03,0,0,0,0-7.16,2.224,2.224,0,0,0-2-1.22,2.268,2.268,0,0,0-2.02,1.22,9.26,9.26,0,0,0,0,7.16A2.268,2.268,0,0,0,84.355,164.8Zm12.285,2.4a4.75,4.75,0,0,1-2.9-.9,5.521,5.521,0,0,1-1.82-2.52A10.648,10.648,0,0,1,91.3,160a10.484,10.484,0,0,1,.62-3.76,5.515,5.515,0,0,1,1.82-2.54,4.75,4.75,0,0,1,2.9-.9,4.663,4.663,0,0,1,2.88.9,5.455,5.455,0,0,1,1.84,2.54,10.49,10.49,0,0,1,.62,3.76,10.654,10.654,0,0,1-.62,3.78,5.461,5.461,0,0,1-1.84,2.52A4.663,4.663,0,0,1,96.64,167.2Zm0-2.4a2.224,2.224,0,0,0,2-1.22,9.03,9.03,0,0,0,0-7.16,2.224,2.224,0,0,0-2-1.22,2.268,2.268,0,0,0-2.02,1.22,9.26,9.26,0,0,0,0,7.16A2.268,2.268,0,0,0,96.64,164.8Z"/>
    <path id="Path_6" data-name="Path 6" class="cls-3" d="M135.666,153a1.107,1.107,0,0,1,.84.36,1.164,1.164,0,0,1,.34.86v11.56a1.163,1.163,0,0,1-.38.88,1.355,1.355,0,0,1-.94.34,1.285,1.285,0,0,1-.92-.34,1.2,1.2,0,0,1-.36-.88V156.3l-1.24.76a1.223,1.223,0,0,1-.64.18,1.146,1.146,0,0,1-.86-.38,1.234,1.234,0,0,1-.34-.84,1.2,1.2,0,0,1,.16-.6,1.325,1.325,0,0,1,.46-.44l3.02-1.8A1.83,1.83,0,0,1,135.666,153Zm8.186,4.6a4.63,4.63,0,0,1,2.38.62,4.277,4.277,0,0,1,1.68,1.66,4.591,4.591,0,0,1,.62,2.36,4.388,4.388,0,0,1-.76,2.48,5.548,5.548,0,0,1-2.02,1.82,5.775,5.775,0,0,1-2.72.66,5.89,5.89,0,0,1-1.62-.24,3.807,3.807,0,0,1-1.34-.66,1.5,1.5,0,0,1-.4-.56,1.674,1.674,0,0,1-.16-.68.855.855,0,0,1,.3-.64,1.149,1.149,0,0,1,.82-.3,1.7,1.7,0,0,1,.9.38,2.912,2.912,0,0,0,1.48.52,3.257,3.257,0,0,0,1.54-.38,3.014,3.014,0,0,0,1.14-1.02,2.393,2.393,0,0,0,.44-1.38,2.281,2.281,0,0,0-.74-1.76,2.516,2.516,0,0,0-1.76-.68,2.587,2.587,0,0,0-.82.12,7.589,7.589,0,0,0-.86.36,5.832,5.832,0,0,1-.58.26,1.132,1.132,0,0,1-.42.08,1.359,1.359,0,0,1-1.12-.42,1.6,1.6,0,0,1-.32-1,1.281,1.281,0,0,1,.02-.28l.62-4.96a1.111,1.111,0,0,1,.4-.68,1.216,1.216,0,0,1,.8-.28h5.78a1.094,1.094,0,0,1,1.12,1.12,1.062,1.062,0,0,1-.32.78,1.125,1.125,0,0,1-.8.3h-4.96l-.38,2.9a3.586,3.586,0,0,1,.96-.36A4.7,4.7,0,0,1,143.852,157.6Z"/>
    <path id="Path_7" data-name="Path 7" class="cls-3" d="M184.355,167.2a4.749,4.749,0,0,1-2.9-.9,5.519,5.519,0,0,1-1.82-2.52,10.654,10.654,0,0,1-.62-3.78,10.491,10.491,0,0,1,.62-3.76,5.513,5.513,0,0,1,1.82-2.54,4.749,4.749,0,0,1,2.9-.9,4.663,4.663,0,0,1,2.88.9,5.455,5.455,0,0,1,1.84,2.54,10.49,10.49,0,0,1,.62,3.76,10.654,10.654,0,0,1-.62,3.78,5.461,5.461,0,0,1-1.84,2.52A4.663,4.663,0,0,1,184.355,167.2Zm0-2.4a2.224,2.224,0,0,0,2-1.22,9.03,9.03,0,0,0,0-7.16,2.224,2.224,0,0,0-2-1.22,2.268,2.268,0,0,0-2.02,1.22,9.26,9.26,0,0,0,0,7.16A2.268,2.268,0,0,0,184.355,164.8Zm12.285,2.4a4.749,4.749,0,0,1-2.9-.9,5.519,5.519,0,0,1-1.82-2.52,10.654,10.654,0,0,1-.62-3.78,10.491,10.491,0,0,1,.62-3.76,5.513,5.513,0,0,1,1.82-2.54,4.749,4.749,0,0,1,2.9-.9,4.663,4.663,0,0,1,2.88.9,5.455,5.455,0,0,1,1.84,2.54,10.491,10.491,0,0,1,.62,3.76,10.654,10.654,0,0,1-.62,3.78,5.461,5.461,0,0,1-1.84,2.52A4.663,4.663,0,0,1,196.64,167.2Zm0-2.4a2.224,2.224,0,0,0,2-1.22,9.03,9.03,0,0,0,0-7.16,2.224,2.224,0,0,0-2-1.22,2.268,2.268,0,0,0-2.02,1.22,9.26,9.26,0,0,0,0,7.16A2.268,2.268,0,0,0,196.64,164.8Z"/>
    <path id="Path_8" data-name="Path 8" class="cls-3" d="M114.866,159.18a1.061,1.061,0,0,1-1.2-1.2v-.34a1.192,1.192,0,0,1,.3-.88,1.217,1.217,0,0,1,.9-.32h.26a1.107,1.107,0,0,1,1.2,1.2v.34a1.217,1.217,0,0,1-.32.9,1.194,1.194,0,0,1-.88.3Zm0,7.82a1.061,1.061,0,0,1-1.2-1.2v-.34a1.192,1.192,0,0,1,.3-.88,1.217,1.217,0,0,1,.9-.32h.26a1.107,1.107,0,0,1,1.2,1.2v.34a1.217,1.217,0,0,1-.32.9,1.194,1.194,0,0,1-.88.3Z"/>
    <path id="Path_9" data-name="Path 9" class="cls-3" d="M164.866,159.18a1.061,1.061,0,0,1-1.2-1.2v-.34a1.192,1.192,0,0,1,.3-.88,1.217,1.217,0,0,1,.9-.32h.26a1.107,1.107,0,0,1,1.2,1.2v.34a1.217,1.217,0,0,1-.32.9,1.194,1.194,0,0,1-.88.3Zm0,7.82a1.061,1.061,0,0,1-1.2-1.2v-.34a1.192,1.192,0,0,1,.3-.88,1.217,1.217,0,0,1,.9-.32h.26a1.107,1.107,0,0,1,1.2,1.2v.34a1.217,1.217,0,0,1-.32.9,1.194,1.194,0,0,1-.88.3Z"/>
    <g id="Component_1_1" data-name="Component 1 – 1" transform="translate(58 216)">
      <g id="Mask_Group_1" data-name="Mask Group 1" class="cls-10" transform="translate(-58 -216)">
        <g id="focus" transform="translate(0 -40)">
          <g class="cls-14" transform="matrix(1, 0, 0, 1, 0, 40)">
            <rect id="Rectangle_3-2" data-name="Rectangle 3" class="cls-11" width="164" height="32" rx="16" transform="translate(58 216)"/>
          </g>
          <text id="Focus-2" data-name="Focus" class="cls-12" transform="translate(119 277)"><tspan x="0" y="0">Focus</tspan></text>
        </g>
        <g id="start">
          <g class="cls-13" transform="matrix(1, 0, 0, 1, 0, 0)">
            <rect id="Rectangle_2-2" data-name="Rectangle 2" class="cls-1" width="164" height="32" rx="16" transform="translate(58 216)"/>
          </g>
          <path id="Path_1" data-name="Path 1" class="cls-3" d="M119.137,227.96a5.049,5.049,0,0,1,1.944.348,4.052,4.052,0,0,1,1.476,1l-1,1.332a3.5,3.5,0,0,0-1.116-.8,3.128,3.128,0,0,0-1.344-.276,1.608,1.608,0,0,0-.948.216.642.642,0,0,0-.288.528.536.536,0,0,0,.228.432,2.267,2.267,0,0,0,.768.288l1.332.3a3.715,3.715,0,0,1,1.74.8,1.853,1.853,0,0,1,.552,1.4,2.345,2.345,0,0,1-.432,1.428,2.678,2.678,0,0,1-1.188.876,4.831,4.831,0,0,1-1.728.288,6.057,6.057,0,0,1-2.2-.384,4.257,4.257,0,0,1-1.584-1.032l1-1.38a3.462,3.462,0,0,0,1.2.864,3.8,3.8,0,0,0,1.56.336q1.248,0,1.248-.732a.535.535,0,0,0-.192-.42,1.466,1.466,0,0,0-.672-.3l-1.464-.324a5.034,5.034,0,0,1-1.2-.408,2.178,2.178,0,0,1-.816-.7,1.928,1.928,0,0,1-.3-1.1,2.227,2.227,0,0,1,.408-1.32,2.707,2.707,0,0,1,1.176-.924A4.561,4.561,0,0,1,119.137,227.96Zm9.391,2.04v1.452H126.74v2.412a.825.825,0,0,0,.2.624.89.89,0,0,0,.588.18,1.76,1.76,0,0,0,.492-.06,1.48,1.48,0,0,0,.384-.2l.216,1.26a2.638,2.638,0,0,1-.768.336,3.616,3.616,0,0,1-.924.12,2.743,2.743,0,0,1-1.632-.432,1.774,1.774,0,0,1-.6-1.488v-2.748h-1.032V230H124.7v-1.344l2.04-.564V230Zm4.984,2.2a.892.892,0,0,0-.24-.66.8.8,0,0,0-.624-.252,1.153,1.153,0,0,0-.684.2,1.084,1.084,0,0,0-.384.7l-1.728-.408a2.145,2.145,0,0,1,.888-1.38,3.439,3.439,0,0,1,2.028-.516,3.146,3.146,0,0,1,2.04.588,2.023,2.023,0,0,1,.732,1.692v2.2q0,.468.42.468a1.04,1.04,0,0,0,.348-.048l-.12,1.164a2.329,2.329,0,0,1-1.848-.048,1.152,1.152,0,0,1-.552-.684,1.542,1.542,0,0,1-.8.7,3.073,3.073,0,0,1-1.152.216,2.378,2.378,0,0,1-1.476-.42,1.491,1.491,0,0,1-.54-1.236,1.522,1.522,0,0,1,.384-1.068,2.22,2.22,0,0,1,1.236-.6l2.076-.432Zm-1.68,2.076a.449.449,0,0,0,.192.4.785.785,0,0,0,.456.132,1.148,1.148,0,0,0,.72-.24.943.943,0,0,0,.312-.78v-.336l-.972.2a1.264,1.264,0,0,0-.54.216A.487.487,0,0,0,131.832,234.272ZM137.713,236v-6h1.8l.084,1.3a2.2,2.2,0,0,1,.66-1.032,1.745,1.745,0,0,1,1.164-.384,1.322,1.322,0,0,1,.384.048,1.142,1.142,0,0,1,.264.084l-.2,1.68a3.13,3.13,0,0,0-.312-.072,2.311,2.311,0,0,0-.444-.036,1.433,1.433,0,0,0-.96.348,1.317,1.317,0,0,0-.4,1.044V236Zm9.911-6v1.452h-1.788v2.412a.825.825,0,0,0,.2.624.89.89,0,0,0,.588.18,1.76,1.76,0,0,0,.492-.06,1.479,1.479,0,0,0,.384-.2l.216,1.26a2.638,2.638,0,0,1-.768.336,3.616,3.616,0,0,1-.924.12,2.743,2.743,0,0,1-1.632-.432,1.774,1.774,0,0,1-.6-1.488v-2.748h-1.032V230H143.8v-1.344l2.04-.564V230Z"/>
          <path id="Path_2" data-name="Path 2" class="cls-3" d="M154.742,227.592a.83.83,0,0,0,0,1.175L157.975,232l-3.233,3.233a.831.831,0,0,0,1.175,1.175l3.825-3.825a.83.83,0,0,0,0-1.175l-3.825-3.825A.838.838,0,0,0,154.742,227.592Z"/>
        </g>
      </g>
    </g>
  </g>
</svg>
