<svg id="Layer_1" data-name="Layer 1" xmlns="http://www.w3.org/2000/svg" xmlns:xlink="http://www.w3.org/1999/xlink" viewBox="0 0 280 540"><defs><style>.cls-1{fill:url(#linear-gradient);}.cls-2{fill:url(#linear-gradient-2);}.cls-3{fill:url(#linear-gradient-3);}.cls-4{fill:url(#linear-gradient-4);}.cls-5{fill:url(#linear-gradient-5);}.cls-6{fill:url(#linear-gradient-6);}.cls-7{fill:url(#linear-gradient-7);}.cls-8{fill:url(#linear-gradient-8);}.cls-9{fill:url(#linear-gradient-9);}</style><linearGradient id="linear-gradient" x1="148" y1="377.5" x2="148" y2="540.5" gradientUnits="userSpaceOnUse"><stop offset="0" stop-color="#018abe"/><stop offset="1" stop-color="#02457a" stop-opacity="0.7"/></linearGradient><linearGradient id="linear-gradient-2" x1="192.5" y1="401.5" x2="192.5" y2="544.5" gradientUnits="userSpaceOnUse"><stop offset="0" stop-color="#97cadb"/><stop offset="1" stop-color="#018abe" stop-opacity="0.6"/></linearGradient><linearGradient id="linear-gradient-3" x1="42" y1="443" x2="42" y2="453" gradientUnits="userSpaceOnUse"><stop offset="0" stop-color="#97cadb"/><stop offset="1" stop-color="#018abe"/></linearGradient><linearGradient id="linear-gradient-4" x1="108" y1="426" x2="108" y2="436" gradientUnits="userSpaceOnUse"><stop offset="0" stop-color="#018abe"/><stop offset="1" stop-color="#02457a"/></linearGradient><linearGradient id="linear-gradient-5" x1="83.85" y1="474.35" x2="83.85" y2="482.35" gradientTransform="translate(489.63 405.98) rotate(93.56)" xlink:href="#linear-gradient-4"/><linearGradient id="linear-gradient-6" x1="89.64" y1="409.64" x2="89.64" y2="419.64" gradientTransform="translate(516.9 167.99) rotate(71.26)" xlink:href="#linear-gradient-3"/><linearGradient id="linear-gradient-7" x1="123.92" y1="360.18" x2="123.92" y2="370.18" gradientTransform="translate(288.68 799.41) rotate(-170.76)" xlink:href="#linear-gradient-3"/><linearGradient id="linear-gradient-8" x1="84.83" y1="309.31" x2="84.83" y2="319.31" gradientTransform="translate(544.17 588.59) rotate(132.06)" xlink:href="#linear-gradient-4"/><linearGradient id="linear-gradient-9" x1="185.58" y1="410.68" x2="185.58" y2="420.68" gradientTransform="translate(362.17 36.33) rotate(49.03)" gradientUnits="userSpaceOnUse"><stop offset="0" stop-color="#97cadb"/><stop offset="1" stop-color="#02457a"/></linearGradient></defs><path class="cls-1" d="M312.5,377.5c-20.57,0-20.57,83-41.13,83s-20.57-43-41.13-43-20.56,92-41.13,92-20.56-62-41.12-62-20.56,42-41.13,42-20.56-91-41.12-91-20.56,71-41.12,71-20.56-48-41.12-48v119h329Z"/><path class="cls-2" d="M394.5,449.5c-25.88,0-25.88,82-51.76,82s-45.87-102-71.75-102-17.87,43-43.75,43-13.87-71-39.75-71-15.87,120-41.75,120-25.87-59-51.74-59-25.88,49-51.75,49-25.88-62-51.75-62v95h404Z"/><circle class="cls-3" cx="42" cy="448" r="5"/><circle class="cls-4" cx="108" cy="431" r="5"/><circle class="cls-5" cx="7" cy="460" r="4"/><circle class="cls-6" cx="153.04" cy="386.1" r="5"/><circle class="cls-7" cx="225.03" cy="419.06" r="5"/><circle class="cls-8" cx="254" cy="441" r="5"/><circle class="cls-9" cx="170" cy="449" r="5"/></svg>