<svg xmlns="http://www.w3.org/2000/svg" viewBox="0 0 16 16"><defs><style>.cls-1{isolation:isolate;}.cls-2{fill:none;}.cls-3{opacity:0.85;}.cls-4{fill:#97cadb;}.cls-10,.cls-5{fill:#d6e8ee;mix-blend-mode:overlay;}.cls-5{opacity:0.6;}.cls-6{opacity:0.9;}.cls-7{fill:#018abe;}.cls-8{opacity:0.95;}.cls-9{fill:#02457a;}.cls-10{opacity:0.45;}</style></defs><g class="cls-1"><g id="Layer_1" data-name="Layer 1"><path class="cls-2" d="M15.43,8.74l-.1.06Z"/><g class="cls-3"><path class="cls-4" d="M1.26,11.82,4.5,10V8.42c-.27-.81-.56-1.57-1.09-1.57-1.14,0-1.14,2.81-2.28,2.81-.52,0-.8-.83-1.07-1.74v3.21A.79.79,0,0,0,1.26,11.82Z"/></g><path class="cls-5" d="M1.26,11.82,4.5,10V8.42c-.27-.81-.56-1.57-1.09-1.57-1.14,0-1.14,2.81-2.28,2.81-.52,0-.8-.83-1.07-1.74v3.21A.79.79,0,0,0,1.26,11.82Z"/><g class="cls-6"><path class="cls-7" d="M8,8.29c-1.14,0-1.19,2-2.33,2-.61,0-.89-1-1.2-1.91v2.71a.8.8,0,0,0,1.2.69L8.94,9.94V9.1C8.71,8.65,8.45,8.29,8,8.29Z"/></g><path class="cls-5" d="M8,8.29c-1.14,0-1.19,2-2.33,2-.61,0-.89-1-1.2-1.91v2.71a.8.8,0,0,0,1.2.69L8.94,9.94V9.1C8.71,8.65,8.45,8.29,8,8.29Z"/><g class="cls-8"><path class="cls-9" d="M15.43,8.74l.11-.06a.88.88,0,0,0,.34-.38A1.71,1.71,0,0,1,15.43,8.74Z"/></g><path class="cls-5" d="M15.43,8.74l.11-.06a.88.88,0,0,0,.34-.38A1.71,1.71,0,0,1,15.43,8.74Z"/><g class="cls-8"><path class="cls-9" d="M12.55,6.75c-1.14,0-1.14,4.11-2.28,4.12-.72,0-1-1-1.34-1.77v2a.79.79,0,0,0,1.19.69l5.2-3a1.07,1.07,0,0,1-.49.11C13.7,8.92,13.69,6.74,12.55,6.75Z"/></g><path class="cls-5" d="M12.55,6.75c-1.14,0-1.14,4.11-2.28,4.12-.72,0-1-1-1.34-1.77v2a.79.79,0,0,0,1.19.69l5.2-3a1.07,1.07,0,0,1-.49.11C13.7,8.92,13.69,6.74,12.55,6.75Z"/><path class="cls-2" d="M12.55,6.75c-.4,0-.66.5-.87,1.15.62.67.84,2.17,1.8,2.17.47,0,.77-.55,1-1.23C13.68,8.46,13.57,6.74,12.55,6.75Z"/><path class="cls-2" d="M3.41,6.85c-.66,0-.94,1-1.28,1.74.4.81.7,1.86,1.46,1.86.5,0,.8-.73,1-1.59,0-.15-.09-.3-.14-.44C4.23,7.61,3.94,6.85,3.41,6.85Z"/><path class="cls-2" d="M8,8.29a.86.86,0,0,0-.55.2c.26.74.56,1.36,1,1.36a.92.92,0,0,0,.63-.25c-.07-.17-.15-.34-.23-.5C8.71,8.65,8.45,8.29,8,8.29Z"/><g class="cls-3"><path class="cls-4" d="M1.11,7.69c.48,0,.77.4,1,.9.34-.79.62-1.74,1.28-1.74s.82.76,1.09,1.57V6.05L1.25,4.19a.79.79,0,0,0-1.19.69v3c.06.19.11.37.17.54C.45,8,.72,7.69,1.11,7.69Z"/></g><g class="cls-6"><path class="cls-7" d="M4.64,8.86C5,7.58,5.32,6,6.06,6s1,1.37,1.42,2.48A.86.86,0,0,1,8,8.29c.42,0,.68.36.9.81v-3L5.69,4.18a.81.81,0,0,0-1.2.7V8.42C4.55,8.56,4.6,8.71,4.64,8.86Z"/></g><g class="cls-8"><path class="cls-9" d="M9.16,9.6c.66-.59.86-2,1.84-2a.93.93,0,0,1,.68.32c.21-.65.47-1.15.87-1.15,1,0,1.13,1.71,1.95,2.09.21-.59.4-1.27.64-1.77l-5-2.89a.79.79,0,0,0-1.19.69V9.1C9,9.26,9.09,9.43,9.16,9.6Z"/></g><g class="cls-3"><path class="cls-4" d="M1.13,9.66c.48,0,.76-.5,1-1.07-.25-.5-.54-.9-1-.9S.45,8,.23,8.46C.45,9.13.72,9.66,1.13,9.66Z"/></g><path class="cls-10" d="M1.13,9.66c.48,0,.76-.5,1-1.07-.25-.5-.54-.9-1-.9S.45,8,.23,8.46C.45,9.13.72,9.66,1.13,9.66Z"/><g class="cls-6"><path class="cls-7" d="M6.06,6C5.32,6,5,7.58,4.64,8.86c.26.77.55,1.47,1.06,1.47.92,0,1.13-1.34,1.78-1.84C7.09,7.38,6.79,6,6.06,6Z"/></g><path class="cls-10" d="M6.06,6C5.32,6,5,7.58,4.64,8.86c.26.77.55,1.47,1.06,1.47.92,0,1.13-1.34,1.78-1.84C7.09,7.38,6.79,6,6.06,6Z"/><g class="cls-8"><path class="cls-9" d="M11,7.58c-1,0-1.18,1.43-1.84,2,.27.64.55,1.27,1.11,1.27.74,0,1-1.75,1.41-3A.93.93,0,0,0,11,7.58Z"/></g><path class="cls-10" d="M11,7.58c-1,0-1.18,1.43-1.84,2,.27.64.55,1.27,1.11,1.27.74,0,1-1.75,1.41-3A.93.93,0,0,0,11,7.58Z"/><g class="cls-8"><path class="cls-9" d="M14.84,8.91a1.07,1.07,0,0,0,.49-.11l.1-.06a1.71,1.71,0,0,0,.45-.44.79.79,0,0,0-.34-1l-.4-.23c-.24.5-.43,1.18-.64,1.77A.74.74,0,0,0,14.84,8.91Z"/></g><path class="cls-10" d="M14.84,8.91a1.07,1.07,0,0,0,.49-.11l.1-.06a1.71,1.71,0,0,0,.45-.44.79.79,0,0,0-.34-1l-.4-.23c-.24.5-.43,1.18-.64,1.77A.74.74,0,0,0,14.84,8.91Z"/></g></g></svg>