<svg xmlns="http://www.w3.org/2000/svg" viewBox="0 0 48 48"><defs><style>.cls-1{isolation:isolate;}.cls-2{opacity:0.85;}.cls-3{fill:#97cadb;}.cls-10,.cls-4{fill:#d6e8ee;mix-blend-mode:overlay;}.cls-4{opacity:0.6;}.cls-5{opacity:0.9;}.cls-6{fill:#018abe;}.cls-7{opacity:0.95;}.cls-8{fill:#02457a;}.cls-9{fill:none;}.cls-10{opacity:0.45;}</style></defs><g class="cls-1"><g id="Layer_1" data-name="Layer 1"><g class="cls-2"><path class="cls-3" d="M3.61,35.37l10-5.84v-6C13,21.57,12.23,20,11,20c-3.24,0-3.25,8-6.5,8-2.32,0-3-3.05-4.36-4.8V33.38A2.31,2.31,0,0,0,3.61,35.37Z"/></g><path class="cls-4" d="M3.61,35.37l10-5.84v-6C13,21.57,12.23,20,11,20c-3.24,0-3.25,8-6.5,8-2.32,0-3-3.05-4.36-4.8V33.38A2.31,2.31,0,0,0,3.61,35.37Z"/><g class="cls-5"><path class="cls-6" d="M24,25c-3.25,0-3.25,6-6.5,6-2,0-2.79-4.26-3.86-7.48v9.86a2.31,2.31,0,0,0,3.47,2l10-5.84v-.3C26.36,27.07,25.55,25,24,25Z"/></g><path class="cls-4" d="M24,25c-3.25,0-3.25,6-6.5,6-2,0-2.79-4.26-3.86-7.48v9.86a2.31,2.31,0,0,0,3.47,2l10-5.84v-.3C26.36,27.07,25.55,25,24,25Z"/><g class="cls-7"><path class="cls-8" d="M37,22c-3.25,0-3.25,12-6.5,12-1.69,0-2.5-2.44-3.35-4.77v4.15a2.31,2.31,0,0,0,3.47,2L46.72,26a2.28,2.28,0,0,0,1-1.32c-1.31.88-2,2.33-4.26,2.33C40.25,27,40.25,22,37,22Z"/></g><path class="cls-4" d="M37,22c-3.25,0-3.25,12-6.5,12-1.69,0-2.5-2.44-3.35-4.77v4.15a2.31,2.31,0,0,0,3.47,2L46.72,26a2.28,2.28,0,0,0,1-1.32c-1.31.88-2,2.33-4.26,2.33C40.25,27,40.25,22,37,22Z"/><path class="cls-9" d="M11,20c-1.87,0-2.67,2.66-3.63,4.92C8.34,27,8.7,30,11,30c1.4,0,2.4-1.93,3.32-4.25-.22-.75-.44-1.51-.68-2.23C13,21.57,12.23,20,11,20Z"/><path class="cls-9" d="M24,25a2.32,2.32,0,0,0-1.39.46C23.45,28.8,24.32,32,26,32a2.38,2.38,0,0,0,1.83-1c-.23-.58-.45-1.2-.68-1.81C26.36,27.07,25.55,25,24,25Z"/><path class="cls-9" d="M37,22c-1,0-1.67,1.11-2.24,2.65C36.64,26.2,37.21,30,40,30c1.21,0,2.13-1.32,3-3.05C40.24,26.42,40.05,22,37,22Z"/><g class="cls-2"><path class="cls-3" d="M5,23c1.2,0,1.87.83,2.37,1.92C8.33,22.66,9.13,20,11,20c1.23,0,2,1.57,2.64,3.52V18.47l-10-5.84a2.31,2.31,0,0,0-3.47,2V23.2a31.94,31.94,0,0,1,1.75,2.93C2.65,24.46,3.51,23,5,23Z"/></g><g class="cls-5"><path class="cls-6" d="M14.32,25.75C15.7,22.3,16.9,18,19,18c1.82,0,2.69,3.81,3.61,7.46A2.32,2.32,0,0,1,24,25c1.55,0,2.36,2.07,3.14,4.23V18.47l-10-5.84a2.31,2.31,0,0,0-3.47,2v8.9C13.88,24.24,14.1,25,14.32,25.75Z"/></g><g class="cls-7"><path class="cls-8" d="M27.82,31c1.83-2.11,2.42-7,5.17-7a2.71,2.71,0,0,1,1.76.65C35.32,23.11,36,22,37,22c3.06,0,3.25,4.42,6,4.95.85-1.8,1.61-4,2.5-5.68L30.61,12.63a2.31,2.31,0,0,0-3.47,2V29.23C27.37,29.84,27.59,30.46,27.82,31Z"/></g><g class="cls-2"><path class="cls-3" d="M4.5,28c1.38,0,2.17-1.43,2.87-3.08C6.87,23.83,6.2,23,5,23c-1.49,0-2.35,1.46-3.11,3.13A3.14,3.14,0,0,0,4.5,28Z"/></g><path class="cls-10" d="M4.5,28c1.38,0,2.17-1.43,2.87-3.08C6.87,23.83,6.2,23,5,23c-1.49,0-2.35,1.46-3.11,3.13A3.14,3.14,0,0,0,4.5,28Z"/><g class="cls-5"><path class="cls-6" d="M19,18c-2.1,0-3.3,4.3-4.68,7.75.79,2.67,1.6,5.25,3.18,5.25,2.7,0,3.16-4.14,5.11-5.54C21.69,21.81,20.82,18,19,18Z"/></g><path class="cls-10" d="M19,18c-2.1,0-3.3,4.3-4.68,7.75.79,2.67,1.6,5.25,3.18,5.25,2.7,0,3.16-4.14,5.11-5.54C21.69,21.81,20.82,18,19,18Z"/><g class="cls-7"><path class="cls-8" d="M27.82,31c.66,1.64,1.43,3,2.67,3,2.26,0,2.95-5.81,4.26-9.35A2.71,2.71,0,0,0,33,24C30.24,24,29.65,28.93,27.82,31Z"/></g><path class="cls-10" d="M27.82,31c.66,1.64,1.43,3,2.67,3,2.26,0,2.95-5.81,4.26-9.35A2.71,2.71,0,0,0,33,24C30.24,24,29.65,28.93,27.82,31Z"/><g class="cls-7"><path class="cls-8" d="M43.5,27c2.26,0,3-1.45,4.26-2.33a2.28,2.28,0,0,0-1-2.66l-1.27-.74C44.56,22.91,43.8,25.15,43,27A3.12,3.12,0,0,0,43.5,27Z"/></g><path class="cls-10" d="M43.5,27c2.26,0,3-1.45,4.26-2.33a2.28,2.28,0,0,0-1-2.66l-1.27-.74C44.56,22.91,43.8,25.15,43,27A3.12,3.12,0,0,0,43.5,27Z"/></g></g></svg>