<svg xmlns="http://www.w3.org/2000/svg" viewBox="0 0 128 128"><defs><style>.cls-1{isolation:isolate;}.cls-2{fill:none;}.cls-3{opacity:0.85;}.cls-4{fill:#97cadb;}.cls-10,.cls-5{fill:#d6e8ee;mix-blend-mode:overlay;}.cls-5{opacity:0.6;}.cls-6{opacity:0.9;}.cls-7{fill:#018abe;}.cls-8{opacity:0.95;}.cls-9{fill:#02457a;}.cls-10{opacity:0.45;}</style></defs><g class="cls-1"><g id="Layer_1" data-name="Layer 1"><path class="cls-2" d="M123.55,69.94l-.81.47C123,70.26,123.29,70.11,123.55,69.94Z"/><g class="cls-3"><path class="cls-4" d="M10,94.63,36,79.61l0-12.26c-2.15-6.49-4.44-12.58-8.72-12.57-9.15,0-9.12,22.49-18.28,22.5-4.15,0-6.43-6.64-8.54-13.9l0,25.73A6.39,6.39,0,0,0,10,94.63Z"/></g><path class="cls-5" d="M10,94.63,36,79.61l0-12.26c-2.15-6.49-4.44-12.58-8.72-12.57-9.15,0-9.12,22.49-18.28,22.5-4.15,0-6.43-6.64-8.54-13.9l0,25.73A6.39,6.39,0,0,0,10,94.63Z"/><g class="cls-6"><path class="cls-7" d="M64.22,66.33c-9.15,0-9.49,16.33-18.65,16.34-4.88,0-7.17-7.92-9.63-15.32l0,12.26v9.45a6.39,6.39,0,0,0,9.59,5.52l25.94-15V72.79C69.73,69.19,67.63,66.32,64.22,66.33Z"/></g><path class="cls-5" d="M64.22,66.33c-9.15,0-9.49,16.33-18.65,16.34-4.88,0-7.17-7.92-9.63-15.32l0,12.26v9.45a6.39,6.39,0,0,0,9.59,5.52l25.94-15V72.79C69.73,69.19,67.63,66.32,64.22,66.33Z"/><g class="cls-8"><path class="cls-9" d="M123.55,69.94l.9-.52a6.25,6.25,0,0,0,2.67-3A15.77,15.77,0,0,1,123.55,69.94Z"/></g><path class="cls-5" d="M123.55,69.94l.9-.52a6.25,6.25,0,0,0,2.67-3A15.77,15.77,0,0,1,123.55,69.94Z"/><g class="cls-8"><path class="cls-9" d="M100.46,54c-9.15,0-9.11,33-18.26,33-5.74,0-7.75-8.12-10.71-14.18V89a6.39,6.39,0,0,0,9.59,5.52l41.64-24.12a8.68,8.68,0,0,1-3.94.92C109.64,71.34,109.62,53.93,100.46,54Z"/></g><path class="cls-5" d="M100.46,54c-9.15,0-9.11,33-18.26,33-5.74,0-7.75-8.12-10.71-14.18V89a6.39,6.39,0,0,0,9.59,5.52l41.64-24.12a8.68,8.68,0,0,1-3.94.92C109.64,71.34,109.62,53.93,100.46,54Z"/><path class="cls-2" d="M100.46,54c-3.2,0-5.27,4-7,9.28,5,5.38,6.76,17.37,14.44,17.36,3.82,0,6.16-4.43,8.16-9.86C109.53,67.67,108.6,53.93,100.46,54Z"/><path class="cls-2" d="M27.22,54.78c-5.32,0-7.53,7.59-10.25,14,3.23,6.45,5.58,14.88,11.7,14.87,4,0,6.37-5.81,8.44-12.73-.39-1.16-.78-2.35-1.17-3.52C33.79,60.86,31.5,54.77,27.22,54.78Z"/><path class="cls-2" d="M64.22,66.33a7,7,0,0,0-4.4,1.56c2.08,6,4.47,11,8.45,10.94a7.29,7.29,0,0,0,5-2c-.59-1.38-1.17-2.76-1.8-4C69.73,69.19,67.63,66.32,64.22,66.33Z"/><g class="cls-3"><path class="cls-4" d="M8.83,61.51c3.79,0,6.13,3.23,8.14,7.22,2.72-6.36,4.93-14,10.25-14,4.28,0,6.57,6.08,8.72,12.57l0-18.94-26-14.94A6.38,6.38,0,0,0,.37,39l0,24.37c.43,1.49.87,3,1.34,4.34C3.52,64.14,5.67,61.51,8.83,61.51Z"/></g><g class="cls-6"><path class="cls-7" d="M37.11,70.87c3-10.2,5.41-22.82,11.31-22.83s8.32,11,11.4,19.85a7,7,0,0,1,4.4-1.56c3.41,0,5.51,2.86,7.27,6.46l0-24.43-26-15A6.39,6.39,0,0,0,35.9,39l0,9.45,0,18.94C36.33,68.52,36.72,69.71,37.11,70.87Z"/></g><g class="cls-8"><path class="cls-9" d="M73.29,76.84c5.29-4.71,6.9-16.16,14.76-16.17a7.15,7.15,0,0,1,5.4,2.56c1.74-5.25,3.81-9.28,7-9.28,8.14,0,9.07,13.72,15.59,16.78,1.74-4.72,3.22-10.2,5.19-14.21L81,33.36a6.39,6.39,0,0,0-9.57,5.55v9.45l0,24.43C72.12,74.08,72.7,75.46,73.29,76.84Z"/></g><g class="cls-3"><path class="cls-4" d="M8.94,77.28c3.84,0,6.06-4,8-8.55-2-4-4.35-7.23-8.14-7.22-3.16,0-5.31,2.63-7.09,6.21C3.52,73.09,5.64,77.29,8.94,77.28Z"/></g><path class="cls-10" d="M8.94,77.28c3.84,0,6.06-4,8-8.55-2-4-4.35-7.23-8.14-7.22-3.16,0-5.31,2.63-7.09,6.21C3.52,73.09,5.64,77.29,8.94,77.28Z"/><g class="cls-6"><path class="cls-7" d="M48.42,48c-5.9,0-8.27,12.63-11.31,22.83,2.08,6.19,4.36,11.81,8.46,11.8,7.41,0,9-10.7,14.25-14.78C56.74,59,54.34,48,48.42,48Z"/></g><path class="cls-10" d="M48.42,48c-5.9,0-8.27,12.63-11.31,22.83,2.08,6.19,4.36,11.81,8.46,11.8,7.41,0,9-10.7,14.25-14.78C56.74,59,54.34,48,48.42,48Z"/><g class="cls-8"><path class="cls-9" d="M88.05,60.67c-7.86,0-9.47,11.46-14.76,16.17C75.47,81.94,77.68,87,82.2,87c6,0,8-14,11.25-23.74A7.15,7.15,0,0,0,88.05,60.67Z"/></g><path class="cls-10" d="M88.05,60.67c-7.86,0-9.47,11.46-14.76,16.17C75.47,81.94,77.68,87,82.2,87c6,0,8-14,11.25-23.74A7.15,7.15,0,0,0,88.05,60.67Z"/><g class="cls-8"><path class="cls-9" d="M118.8,71.33a8.68,8.68,0,0,0,3.94-.92l.81-.47a15.77,15.77,0,0,0,3.57-3.54,6.38,6.38,0,0,0-2.69-8.05l-3.19-1.83c-2,4-3.45,9.49-5.19,14.21A6.45,6.45,0,0,0,118.8,71.33Z"/></g><path class="cls-10" d="M118.8,71.33a8.68,8.68,0,0,0,3.94-.92l.81-.47a15.77,15.77,0,0,0,3.57-3.54,6.38,6.38,0,0,0-2.69-8.05l-3.19-1.83c-2,4-3.45,9.49-5.19,14.21A6.45,6.45,0,0,0,118.8,71.33Z"/></g></g></svg>